<svg xmlns="http://www.w3.org/2000/svg" viewBox="0 0 900 470" width="900" height="470" font-family="-apple-system,BlinkMacSystemFont,Segoe UI,Helvetica,Arial,sans-serif" role="img" aria-label="ai-lcr routes each model to its own cheapest provider — Gemini to Kunavo, DeepSeek to OpenRouter, Seedream to fal, Flux Schnell to Runware">
  <defs>
    <linearGradient id="bg" x1="0" y1="0" x2="1" y2="1">
      <stop offset="0" stop-color="#0b1020"/>
      <stop offset="1" stop-color="#11182f"/>
    </linearGradient>
    <radialGradient id="winGlow" cx="0.5" cy="0.5" r="0.5">
      <stop offset="0" stop-color="#3fb950" stop-opacity="0.5"/>
      <stop offset="1" stop-color="#3fb950" stop-opacity="0"/>
    </radialGradient>
    <filter id="soft" x="-60%" y="-60%" width="220%" height="220%">
      <feGaussianBlur stdDeviation="2.6" result="b"/>
      <feMerge><feMergeNode in="b"/><feMergeNode in="SourceGraphic"/></feMerge>
    </filter>
  </defs>

  <rect x="0.5" y="0.5" width="899" height="469" rx="18" fill="url(#bg)" stroke="#222b44"/>

  <!-- title -->
  <text x="40" y="50" fill="#e6edf3" font-size="29" font-weight="700">ai-lcr</text>
  <text x="40" y="75" fill="#8b949e" font-size="14.5">Least Cost Routing — every model routed to <tspan fill="#7fe7d6" font-weight="600">its own cheapest provider</tspan>, with auto fallback</text>

  <!-- column headers -->
  <text x="130" y="112" text-anchor="middle" fill="#5b647d" font-size="11.5" font-weight="600" letter-spacing="0.6">MODELS YOU CALL</text>
  <text x="450" y="112" text-anchor="middle" fill="#5b647d" font-size="11.5" font-weight="600" letter-spacing="0.6">ai-lcr ROUTER</text>
  <text x="775" y="112" text-anchor="middle" fill="#5b647d" font-size="11.5" font-weight="600" letter-spacing="0.6">CHEAPEST PROVIDER · PER MODEL</text>

  <!-- ── connection paths (model → router → its cheapest provider) ── -->
  <!-- Gemini 3 Pro → Kunavo (blue) -->
  <path d="M220,150 C300,150 320,262 440,262 C560,262 600,150 680,150" fill="none" stroke="#58a6ff" stroke-width="2.4" opacity="0.7"/>
  <!-- DeepSeek V4 → OpenRouter (purple) -->
  <path d="M220,225 C300,225 330,262 440,262 C550,262 600,225 680,225" fill="none" stroke="#a371f7" stroke-width="2.4" opacity="0.7"/>
  <!-- Seedream 4 → fal (pink) -->
  <path d="M220,300 C300,300 330,262 440,262 C550,262 600,300 680,300" fill="none" stroke="#f778ba" stroke-width="2.4" opacity="0.7"/>
  <!-- Flux Schnell → Runware (teal) -->
  <path d="M220,375 C300,375 320,262 440,262 C560,262 600,375 680,375" fill="none" stroke="#2dd4bf" stroke-width="2.4" opacity="0.7"/>

  <!-- ── model chips ── -->
  <g>
    <rect x="40" y="126" width="180" height="48" rx="11" fill="#161d31" stroke="#2b3552"/>
    <text x="58" y="148" fill="#e6edf3" font-size="13.5" font-weight="600">Gemini 3 Pro</text>
    <text x="58" y="165" fill="#6e7891" font-size="11">text · in/out</text>
  </g>
  <g>
    <rect x="40" y="201" width="180" height="48" rx="11" fill="#161d31" stroke="#2b3552"/>
    <text x="58" y="223" fill="#e6edf3" font-size="13.5" font-weight="600">DeepSeek V4</text>
    <text x="58" y="240" fill="#6e7891" font-size="11">text · in/out</text>
  </g>
  <g>
    <rect x="40" y="276" width="180" height="48" rx="11" fill="#161d31" stroke="#2b3552"/>
    <text x="58" y="298" fill="#e6edf3" font-size="13.5" font-weight="600">Seedream 4</text>
    <text x="58" y="315" fill="#6e7891" font-size="11">image</text>
  </g>
  <g>
    <rect x="40" y="351" width="180" height="48" rx="11" fill="#161d31" stroke="#2b3552"/>
    <text x="58" y="373" fill="#e6edf3" font-size="13.5" font-weight="600">Flux Schnell</text>
    <text x="58" y="390" fill="#6e7891" font-size="11">image</text>
  </g>

  <!-- ── router node ── -->
  <g>
    <rect x="360" y="222" width="180" height="80" rx="14" fill="#141b2e" stroke="#2dd4bf" stroke-width="1.6"/>
    <rect x="360" y="222" width="180" height="80" rx="14" fill="none" stroke="#2dd4bf" stroke-width="1.6" opacity="0.5">
      <animate attributeName="opacity" values="0.12;0.6;0.12" dur="2.4s" repeatCount="indefinite"/>
    </rect>
    <text x="450" y="256" text-anchor="middle" fill="#e6edf3" font-size="17" font-weight="700">ai-lcr</text>
    <text x="450" y="277" text-anchor="middle" fill="#7fe7d6" font-size="11.5">sort by price · per model</text>
    <text x="450" y="293" text-anchor="middle" fill="#6e7891" font-size="11">→ route to cheapest</text>
  </g>

  <!-- ── provider chips (each is the cheapest for its model → all win ⭐) ── -->
  <!-- Kunavo -->
  <g>
    <ellipse cx="775" cy="150" rx="118" ry="34" fill="url(#winGlow)">
      <animate attributeName="opacity" values="0.35;0.9;0.35" dur="2.2s" repeatCount="indefinite"/>
    </ellipse>
    <rect x="680" y="126" width="190" height="48" rx="11" fill="#10241a" stroke="#58a6ff" stroke-width="1.6"/>
    <text x="698" y="148" fill="#e6edf3" font-size="13.5" font-weight="600">Kunavo</text>
    <text x="698" y="165" fill="#3fb950" font-size="11">$1.40 / 1M · −30%</text>
    <text x="846" y="156" text-anchor="middle" font-size="17">⭐</text>
  </g>
  <!-- OpenRouter -->
  <g>
    <ellipse cx="775" cy="225" rx="118" ry="34" fill="url(#winGlow)">
      <animate attributeName="opacity" values="0.35;0.9;0.35" dur="2.2s" begin="0.5s" repeatCount="indefinite"/>
    </ellipse>
    <rect x="680" y="201" width="190" height="48" rx="11" fill="#10241a" stroke="#a371f7" stroke-width="1.6"/>
    <text x="698" y="223" fill="#e6edf3" font-size="13.5" font-weight="600">OpenRouter</text>
    <text x="698" y="240" fill="#3fb950" font-size="11">$0.43 / 1M · only carrier</text>
    <text x="846" y="231" text-anchor="middle" font-size="17">⭐</text>
  </g>
  <!-- fal.ai -->
  <g>
    <ellipse cx="775" cy="300" rx="118" ry="34" fill="url(#winGlow)">
      <animate attributeName="opacity" values="0.35;0.9;0.35" dur="2.2s" begin="1s" repeatCount="indefinite"/>
    </ellipse>
    <rect x="680" y="276" width="190" height="48" rx="11" fill="#10241a" stroke="#f778ba" stroke-width="1.6"/>
    <text x="698" y="298" fill="#e6edf3" font-size="13.5" font-weight="600">fal.ai</text>
    <text x="698" y="315" fill="#3fb950" font-size="11">$0.030 / img</text>
    <text x="846" y="306" text-anchor="middle" font-size="17">⭐</text>
  </g>
  <!-- Runware -->
  <g>
    <ellipse cx="775" cy="375" rx="118" ry="34" fill="url(#winGlow)">
      <animate attributeName="opacity" values="0.35;0.9;0.35" dur="2.2s" begin="1.5s" repeatCount="indefinite"/>
    </ellipse>
    <rect x="680" y="351" width="190" height="48" rx="11" fill="#10241a" stroke="#2dd4bf" stroke-width="1.6"/>
    <text x="698" y="373" fill="#e6edf3" font-size="13.5" font-weight="600">Runware</text>
    <text x="698" y="390" fill="#3fb950" font-size="11">$0.0013 / img</text>
    <text x="846" y="381" text-anchor="middle" font-size="17">⭐</text>
  </g>

  <!-- ── animated flow dots: each model streams to its own cheapest provider ── -->
  <circle r="4.8" fill="#58a6ff" filter="url(#soft)">
    <animateMotion dur="2.2s" repeatCount="indefinite" path="M220,150 C300,150 320,262 440,262 C560,262 600,150 680,150"/>
  </circle>
  <circle r="4.8" fill="#a371f7" filter="url(#soft)">
    <animateMotion dur="2.2s" begin="0.5s" repeatCount="indefinite" path="M220,225 C300,225 330,262 440,262 C550,262 600,225 680,225"/>
  </circle>
  <circle r="4.8" fill="#f778ba" filter="url(#soft)">
    <animateMotion dur="2.2s" begin="1s" repeatCount="indefinite" path="M220,300 C300,300 330,262 440,262 C550,262 600,300 680,300"/>
  </circle>
  <circle r="4.8" fill="#2dd4bf" filter="url(#soft)">
    <animateMotion dur="2.2s" begin="1.5s" repeatCount="indefinite" path="M220,375 C300,375 320,262 440,262 C560,262 600,375 680,375"/>
  </circle>

  <!-- footer caption -->
  <text x="40" y="442" fill="#6e7891" font-size="12.5">no single provider is cheapest for everything · ai-lcr keeps a cheapest-first list per model · retryable error → next in line</text>
</svg>
